<?xml version="1.0" encoding="UTF-8" standalone="no"?>
<!DOCTYPE svg PUBLIC "-//W3C//DTD SVG 1.1//EN" "http://www.w3.org/Graphics/SVG/1.1/DTD/svg11.dtd">
<svg width="100%" height="100%" viewBox="0 0 160 160" version="1.1" xmlns="http://www.w3.org/2000/svg" xmlns:xlink="http://www.w3.org/1999/xlink" xml:space="preserve" xmlns:serif="http://www.serif.com/" style="fill-rule:evenodd;clip-rule:evenodd;stroke-linejoin:round;stroke-miterlimit:2;">
    <g transform="matrix(1,0,0,1,0.250602,-3.50836)">
        <g transform="matrix(1.54673,0,0,1.7602,-42.9279,-48.5883)">
            <path d="M70.97,55.678L70.97,69.131C70.97,72.739 67.636,75.668 63.53,75.668L48.651,75.668C44.545,75.668 41.211,72.739 41.211,69.131L41.211,55.678C41.211,52.07 44.545,49.14 48.651,49.14L63.53,49.14C67.636,49.14 70.97,52.07 70.97,55.678Z" style="fill:rgb(245,0,0);fill-opacity:0.24;"/>
        </g>
        <g transform="matrix(1.32286,0,0,1.02624,5.96714,22.8009)">
            <path d="M70.97,55.772L70.97,69.036C70.97,72.697 68.664,75.668 65.825,75.668L46.356,75.668C43.517,75.668 41.211,72.697 41.211,69.036L41.211,55.772C41.211,52.112 43.517,49.14 46.356,49.14L65.825,49.14C68.664,49.14 70.97,52.112 70.97,55.772Z" style="fill:rgb(245,0,0);fill-opacity:0.24;"/>
        </g>
        <g transform="matrix(1.54673,0,0,1.7602,31.5652,-6.89072)">
            <path d="M70.97,55.678L70.97,69.131C70.97,72.739 67.636,75.668 63.53,75.668L48.651,75.668C44.545,75.668 41.211,72.739 41.211,69.131L41.211,55.678C41.211,52.07 44.545,49.14 48.651,49.14L63.53,49.14C67.636,49.14 70.97,52.07 70.97,55.678Z" style="fill:rgb(245,0,0);fill-opacity:0.24;"/>
        </g>
        <g transform="matrix(1.54673,0,0,1.7602,-28.2412,-31.0133)">
            <rect x="37.296" y="31.325" width="2.349" height="10.67" style="fill:rgb(167,54,54);"/>
        </g>
        <g transform="matrix(1.48228,0,0,1.77634,-4.79165,-33.4145)">
            <rect x="37.296" y="31.325" width="2.349" height="10.67" style="fill:rgb(167,54,54);"/>
        </g>
        <g transform="matrix(1.45761,0.306516,-0.283634,1.74677,15.3373,27.901)">
            <rect x="37.296" y="31.325" width="2.349" height="10.67" style="fill:rgb(167,54,54);"/>
        </g>
        <g transform="matrix(1.48157,-0.0523119,0.0307509,1.1279,1.56877,79.2977)">
            <rect x="37.296" y="31.325" width="2.349" height="10.67" style="fill:rgb(167,54,54);"/>
        </g>
        <g transform="matrix(1.45761,0.306516,-0.283634,1.74677,26.1282,29.0302)">
            <rect x="37.296" y="31.325" width="2.349" height="10.67" style="fill:rgb(167,54,54);"/>
        </g>
        <g transform="matrix(1.48157,-0.0523119,0.0307509,1.1279,12.3597,80.4269)">
            <rect x="37.296" y="31.325" width="2.349" height="10.67" style="fill:rgb(167,54,54);"/>
        </g>
        <g transform="matrix(1.45761,0.306516,-0.283634,1.74677,36.6711,30.4417)">
            <rect x="37.296" y="31.325" width="2.349" height="10.67" style="fill:rgb(167,54,54);"/>
        </g>
        <g transform="matrix(1.48157,-0.0523119,0.0307509,1.1279,22.9026,81.8384)">
            <rect x="37.296" y="31.325" width="2.349" height="10.67" style="fill:rgb(167,54,54);"/>
        </g>
    </g>
    <g transform="matrix(1,0,0,1,0.250602,-3.50836)">
        <g transform="matrix(1.54673,0,0,1.7602,-28.2412,-31.0133)">
            <rect x="37.296" y="31.325" width="2.349" height="10.67" style="fill:rgb(167,54,54);"/>
        </g>
        <g transform="matrix(1.48228,0,0,1.77634,-4.79165,-33.4145)">
            <rect x="37.296" y="31.325" width="2.349" height="10.67" style="fill:rgb(167,54,54);"/>
        </g>
        <g transform="matrix(1.45761,0.306516,-0.283634,1.74677,15.3373,27.901)">
            <rect x="37.296" y="31.325" width="2.349" height="10.67" style="fill:rgb(167,54,54);"/>
        </g>
        <g transform="matrix(1.48157,-0.0523119,0.0307509,1.1279,1.56877,79.2977)">
            <rect x="37.296" y="31.325" width="2.349" height="10.67" style="fill:rgb(167,54,54);"/>
        </g>
        <g transform="matrix(1.45761,0.306516,-0.283634,1.74677,26.1282,29.0302)">
            <rect x="37.296" y="31.325" width="2.349" height="10.67" style="fill:rgb(167,54,54);"/>
        </g>
        <g transform="matrix(1.48157,-0.0523119,0.0307509,1.1279,12.3597,80.4269)">
            <rect x="37.296" y="31.325" width="2.349" height="10.67" style="fill:rgb(167,54,54);"/>
        </g>
        <g transform="matrix(1.45761,0.306516,-0.283634,1.74677,36.6711,30.4417)">
            <rect x="37.296" y="31.325" width="2.349" height="10.67" style="fill:rgb(167,54,54);"/>
        </g>
        <g transform="matrix(1.48157,-0.0523119,0.0307509,1.1279,22.9026,81.8384)">
            <rect x="37.296" y="31.325" width="2.349" height="10.67" style="fill:rgb(167,54,54);"/>
        </g>
        <g transform="matrix(1.54673,0,0,1.7602,-42.9279,-48.5883)">
            <path d="M70.97,55.678L70.97,69.131C70.97,72.739 67.636,75.668 63.53,75.668L48.651,75.668C44.545,75.668 41.211,72.739 41.211,69.131L41.211,55.678C41.211,52.07 44.545,49.14 48.651,49.14L63.53,49.14C67.636,49.14 70.97,52.07 70.97,55.678Z" style="fill:rgb(193,31,31);"/>
        </g>
        <g transform="matrix(1.32286,0,0,1.02624,5.96714,22.8009)">
            <path d="M70.97,55.772L70.97,69.036C70.97,72.697 68.664,75.668 65.825,75.668L46.356,75.668C43.517,75.668 41.211,72.697 41.211,69.036L41.211,55.772C41.211,52.112 43.517,49.14 46.356,49.14L65.825,49.14C68.664,49.14 70.97,52.112 70.97,55.772Z" style="fill:rgb(193,31,31);"/>
        </g>
        <g transform="matrix(1.54673,0,0,1.7602,31.5652,-6.89072)">
            <path d="M70.97,55.678L70.97,69.131C70.97,72.739 67.636,75.668 63.53,75.668L48.651,75.668C44.545,75.668 41.211,72.739 41.211,69.131L41.211,55.678C41.211,52.07 44.545,49.14 48.651,49.14L63.53,49.14C67.636,49.14 70.97,52.07 70.97,55.678Z" style="fill:rgb(193,31,31);"/>
        </g>
    </g>
</svg>
